Coordinates
version=1
nRows=13
nColumns=40
inDegrees=yes

Units are S.I. units (second, meters, Newtons, ...)
Angles are in degrees.

endheader
time	pelvis_tilt	pelvis_list	pelvis_rotation	pelvis_tx	pelvis_ty	pelvis_tz	hip_flexion_r	hip_adduction_r	hip_rotation_r	knee_angle_r	knee_angle_r_beta	ankle_angle_r	subtalar_angle_r	mtp_angle_r	hip_flexion_l	hip_adduction_l	hip_rotation_l	knee_angle_l	knee_angle_l_beta	ankle_angle_l	subtalar_angle_l	mtp_angle_l	lumbar_extension	lumbar_bending	lumbar_rotation	arm_flex_r	arm_add_r	arm_rot_r	elbow_flex_r	pro_sup_r	wrist_flex_r	wrist_dev_r	arm_flex_l	arm_add_l	arm_rot_l	elbow_flex_l	pro_sup_l	wrist_flex_l	wrist_dev_l
     47.62500000	     -2.02164402	     -4.56701604	      6.24059161	      1.02442390	      0.93401049	      0.50415000	      6.49748435	      3.83513983	    -17.29308922	     12.64927000	     12.64927000	      9.69389273	     -4.55741025	     -6.30303773	     31.86179843	    -11.54364612	      0.88386948	     48.40831084	     48.40831084	      9.94242742	    -18.63263647	     13.97627421	     -9.58332140	      4.65557187	      1.61199344	     31.87766606	    -20.79561359	     -2.55391098	     74.74643336	     44.95780612	      0.00000000	      0.00000000	      0.36050964	     -7.08428929	     -3.47614970	     27.25349690	     45.80409674	      0.00000000	      0.00000000
     47.63857143	     -2.26030126	     -4.39676159	      6.74850853	      1.02265716	      0.93384132	      0.50375427	      6.33113106	      3.67274352	    -17.60816114	     12.39079433	     12.39079433	      9.83804337	     -4.65254729	     -6.38042110	     32.11947051	    -10.66143356	      1.33017036	     44.82352413	     44.82352413	     10.02420910	    -18.21614066	     13.77219492	     -9.57245676	      4.47953404	      1.55739593	     33.39892765	    -20.89149340	     -2.88812618	     76.53542616	     44.92168545	      0.00000000	      0.00000000	     -0.43147588	     -6.77405496	     -3.38816201	     26.84078329	     45.77931742	      0.00000000	      0.00000000
     47.65214286	     -2.46460880	     -4.26590063	      7.25996961	      1.02094375	      0.93361166	      0.50314807	      6.15261320	      3.52528512	    -17.98258704	     12.18929053	     12.18929053	      9.98968242	     -4.67110589	     -6.50836913	     32.24659630	     -9.80339631	      1.89870726	     41.22142923	     41.22142923	      9.94742719	    -17.42876467	     13.24436538	     -9.63372560	      4.37280382	      1.47412650	     34.74067839	    -20.94247039	     -3.21481429	     78.62390873	     44.87584939	      0.00000000	      0.00000000	     -1.21136514	     -6.48914503	     -3.33181031	     26.47869313	     45.76015806	      0.00000000	      0.00000000
     47.66571429	     -2.69287312	     -4.25564467	      7.78337930	      1.01938459	      0.93308487	      0.50244261	      5.99459987	      3.48669772	    -18.50585078	     11.97683848	     11.97683848	     10.13130667	     -4.49357419	     -6.86444028	     32.26532854	     -9.10724588	      2.54334083	     37.50825065	     37.50825065	      8.60169938	    -16.57704244	      9.43256603	     -9.66711840	      4.40665972	      2.16896395	     35.04480755	    -21.76822124	     -4.40674630	     82.37410948	     44.83556647	      0.00000000	      0.00000000	     -1.53870508	     -6.10443443	     -3.20928157	     26.13017104	     45.75552143	      0.00000000	      0.00000000
     47.67928571	     -2.92480971	     -4.18752701	      8.23815687	      1.01786819	      0.93264227	      0.50170064	      5.86871215	      3.39927426	    -18.78926563	     11.83349374	     11.83349374	     10.30064909	     -4.63824509	     -6.91769580	     32.36269263	     -8.40202578	      3.16352901	     34.31756901	     34.31756901	      8.71796997	    -14.91939530	      9.55091191	     -9.59486272	      4.33678264	      2.19551586	     36.48632283	    -21.85284155	     -4.63612382	     83.38268846	     44.82016541	      0.00000000	      0.00000000	     -2.19829887	     -5.84901149	     -3.16591380	     25.81873515	     45.73893490	      0.00000000	      0.00000000
     47.69285714	     -3.06818903	     -4.13195907	      8.69246224	      1.01660547	      0.93226383	      0.50082563	      5.60113859	      3.33172753	    -19.12303914	     11.64840597	     11.64840597	     10.49809859	     -4.61947683	     -7.00301226	     32.32038717	     -7.79409376	      3.69157452	     31.37483875	     31.37483875	      8.71827149	    -13.00723857	      9.51891833	     -9.62026630	      4.32376123	      2.06548527	     37.73357241	    -21.67766734	     -4.82305542	     84.79257386	     44.79048960	      0.00000000	      0.00000000	     -2.90166186	     -5.67592670	     -3.15556096	     25.51363046	     45.72797214	      0.00000000	      0.00000000
     47.70642857	     -3.15126999	     -4.18668086	      9.15444705	      1.01556042	      0.93185980	      0.49993824	      5.24413578	      3.39910602	    -19.59519960	     11.40999945	     11.40999945	     10.69976314	     -4.40285915	     -7.11229365	     32.27139304	     -7.38869717	      4.08703345	     28.83720779	     28.83720779	      8.55050271	    -10.99188930	      9.23626498	     -9.69003999	      4.43092450	      1.92993736	     38.73350795	    -21.49000811	     -5.09941219	     86.54118611	     44.75509489	      0.00000000	      0.00000000	     -3.59697495	     -5.52005945	     -3.20132472	     25.30842969	     45.72838696	      0.00000000	      0.00000000
     47.72000000	     -3.27022575	     -4.22709559	      9.54867322	      1.01473462	      0.93139112	      0.49903620	      4.89254091	      3.45443165	    -20.00568809	     11.14025605	     11.14025605	     10.89953054	     -4.16049142	     -7.19305197	     32.24146361	     -7.03843940	      4.29181822	     26.68110511	     26.68110511	      8.24345221	     -9.18333616	      8.98290007	     -9.68198479	      4.49533420	      1.98275437	     39.54891556	    -21.39854721	     -5.43593825	     88.04943677	     44.72945463	      0.00000000	      0.00000000	     -4.16607785	     -5.39487836	     -3.27829092	     25.19619345	     45.73666345	      0.00000000	      0.00000000
     47.73357143	     -3.48294474	     -4.43099819	      9.93289702	      1.01393617	      0.93060311	      0.49804217	      4.73814136	      3.65778154	    -20.33659885	     10.99229806	     10.99229806	     11.10357793	     -4.17644257	     -7.25663291	     32.44591901	     -6.81329872	      4.58263816	     25.09327870	     25.09327870	      7.87286630	     -7.98012819	      9.14933158	     -9.46710206	      4.70704287	      2.11645263	     40.41978621	    -21.54720182	     -5.67454897	     88.70759869	     44.72209233	      0.00000000	      0.00000000	     -4.65554656	     -5.28005989	     -3.30229079	     25.05455414	     45.73346393	      0.00000000	      0.00000000
     47.74714286	     -3.43941361	     -4.40478306	     10.20140586	      1.01383372	      0.93037926	      0.49708484	      4.02488533	      3.69049947	    -20.92124247	     10.49822467	     10.49822467	     11.39266635	     -3.23389294	     -7.26742558	     32.09218298	     -6.64759503	      4.02828499	     23.58043429	     23.58043429	      6.90887489	     -6.51844659	      7.56401879	     -9.61950765	      4.67760945	      2.45290875	     40.34750156	    -21.30140046	     -6.68395026	     91.32773072	     44.70308228	      0.00000000	      0.00000000	     -5.07840839	     -5.25638017	     -3.64678719	     25.26882810	     45.80350496	      0.00000000	      0.00000000
     47.76071429	     -3.49195982	     -4.47663758	     10.44024892	      1.01372566	      0.92986936	      0.49608238	      3.51900557	      3.82915150	    -21.14530214	     10.13185738	     10.13185738	     11.59419591	     -3.02336810	     -7.23723750	     31.93322174	     -6.50111238	      3.70523969	     22.64189014	     22.64189014	      6.31371570	     -5.87555263	      7.43239294	     -9.56331373	      4.74404746	      2.42036595	     40.88273298	    -20.89910201	     -6.83925918	     92.19394272	     44.69312110	      0.00000000	      0.00000000	     -5.51849824	     -5.26677224	     -3.70234855	     25.03060093	     45.81190268	      0.00000000	      0.00000000
     47.77428571	     -3.58337014	     -4.62006361	     10.62899159	      1.01381523	      0.92897984	      0.49504814	      3.20042720	      3.99149241	    -21.24163659	     10.06687363	     10.06687363	     11.92589916	     -3.05706018	     -7.32783346	     32.00593054	     -6.43452327	      3.38870771	     22.44998520	     22.44998520	      5.85986565	     -5.79967837	      7.59421107	     -9.34710169	      4.84291472	      2.61451316	     41.10850638	    -20.85553178	     -6.87032955	     92.34898517	     44.69091174	      0.00000000	      0.00000000	     -5.78299937	     -5.31696056	     -3.72455409	     24.94161270	     45.81166984	      0.00000000	      0.00000000
     47.78785714	     -3.62495136	     -4.68535372	     10.70741214	      1.01435379	      0.92849316	      0.49404670	      2.52243221	      4.16225413	    -21.44019088	      9.46558819	      9.46558819	     12.06835965	     -2.44174734	     -7.25276621	     31.53715298	     -6.45294125	      2.64398621	     21.83621779	     21.83621779	      5.22754546	     -5.46790459	      7.33004307	     -9.24776519	      4.87744969	      2.49335780	     41.44542673	    -20.20478690	     -7.07998671	     93.40451950	     44.67209128	      0.00000000	      0.00000000	     -6.22282133	     -5.39068635	     -3.80012838	     24.86885049	     45.82059728	      0.00000000	      0.00000000
